<svg width="512" height="512" viewBox="0 0 512 512" fill="none" xmlns="http://www.w3.org/2000/svg">
<circle cx="256" cy="256" r="251" fill="black"/>
<path d="M273.929 218.602C288.704 202.186 307.873 185.491 327.093 171.525C342.247 160.513 356.845 150.108 373.716 142.758C373.362 140.839 372.832 139.147 372.049 137.859C368.791 132.454 362.022 132.53 357.779 133.414C335.655 138.086 320.324 153.997 304.034 171.525C291.053 185.491 278.071 202.186 268.07 218.602C263.448 226.179 259.23 234.463 255.896 242.469C260.796 234.438 267.085 226.179 273.879 218.602H273.929Z" fill="#E795CA"/>
<path d="M270.443 368.931C263.624 356.43 259.154 346.832 255.972 338.75C258.118 346.858 261.149 356.43 265.746 368.931C270.115 380.751 276.959 392.647 288.426 391.813C290.547 391.662 292.669 391.359 294.765 390.904C283.198 387.949 275.621 378.402 270.443 368.906V368.931Z" fill="#E795CA"/>
<path d="M217.137 390.905C219.233 391.335 221.329 391.663 223.451 391.815C234.917 392.623 241.761 380.752 246.131 368.933C250.727 356.431 253.758 346.859 255.905 338.777C252.722 346.859 248.277 356.431 241.458 368.933C236.281 378.429 228.704 387.976 217.137 390.931V390.905Z" fill="#E795CA"/>
<path d="M168.194 311.323C169.81 285.739 178.751 271.192 189.914 268.363L188.575 268.439C172.386 269.146 166.981 265.004 162.258 250.911C153.646 225.201 155.288 208.052 150.716 194.136C148.772 188.226 141.852 175.396 138.846 161.379C137.836 156.681 137.078 148.145 138.24 141.932C128.289 137.588 117.53 134.304 105.407 132.587C99.1437 131.678 89.1171 131.627 84.3184 137.032C79.4693 142.487 80.8331 155.241 82.7778 161.404C87.2229 175.421 97.4515 188.251 100.331 194.161C107.099 208.077 104.649 225.226 117.378 250.936C124.349 265.029 132.33 269.146 156.273 268.464L158.243 268.388C141.751 271.217 128.516 285.764 126.117 311.349C121.874 356.759 162.46 389.642 208.022 391.839C211.356 391.991 214.412 391.663 217.241 390.93C189.105 385.02 165.516 353.602 168.194 311.349V311.323Z" fill="#FA9660"/>
<path d="M427.644 137.031C422.846 131.627 412.819 131.702 406.556 132.586C394.433 134.329 383.674 137.612 373.723 141.931C374.885 148.144 374.102 156.681 373.117 161.378C370.111 175.395 363.191 188.225 361.246 194.135C356.675 208.051 358.317 225.2 349.704 250.911C344.982 265.003 339.577 269.12 323.388 268.438L322.049 268.363C333.212 271.191 342.153 285.739 343.769 311.323C346.446 353.576 322.832 384.995 294.722 390.904C297.551 391.637 300.607 391.965 303.941 391.814C349.477 389.616 390.089 356.733 385.846 311.323C383.446 285.739 370.212 271.191 353.72 268.363L355.69 268.438C379.633 269.145 387.614 265.003 394.584 250.911C407.313 225.2 404.863 208.051 411.632 194.135C414.511 188.225 424.74 175.395 429.185 161.378C431.13 155.241 432.493 142.461 427.644 137.006V137.031Z" fill="#FA9660"/>
<path d="M237.924 217.775C244.743 225.352 251.006 233.611 255.906 241.642C252.598 233.611 248.354 225.352 243.733 217.775C233.757 201.359 220.775 184.665 207.768 170.698C191.478 153.17 176.148 137.259 154.023 132.587C149.78 131.678 143.012 131.627 139.754 137.032C138.971 138.32 138.44 140.012 138.087 141.932C154.958 149.281 169.556 159.661 184.709 170.698C203.929 184.665 223.099 201.359 237.873 217.775H237.924Z" fill="#E795CA"/>
<path d="M373.727 141.955C356.856 149.305 342.258 159.685 327.104 170.722C307.884 184.688 288.715 201.383 273.94 217.799C267.121 225.376 260.858 233.66 255.958 241.666C251.058 233.634 244.795 225.376 237.976 217.799C223.201 201.383 204.032 184.688 184.812 170.722C169.658 159.71 155.06 149.305 138.189 141.955C137.028 148.168 137.811 156.705 138.796 161.402C141.801 175.419 148.721 188.25 150.666 194.159C155.237 208.075 153.596 225.224 162.208 250.935C166.931 265.028 172.335 269.144 188.525 268.463L189.863 268.387C178.7 271.215 169.759 285.763 168.143 311.347C165.466 353.6 189.08 385.019 217.19 390.929C228.757 387.974 236.334 378.427 241.512 368.931C248.331 356.429 252.801 346.857 255.958 338.775C259.14 346.832 263.611 356.429 270.43 368.931C275.607 378.427 283.184 387.949 294.751 390.929C322.861 385.019 346.475 353.6 343.798 311.347C342.182 285.763 333.241 271.215 322.078 268.387L323.417 268.463C339.606 269.17 344.985 265.028 349.733 250.935C358.346 225.224 356.679 208.075 361.275 194.159C363.22 188.25 370.14 175.419 373.146 161.402C374.156 156.705 374.914 148.168 373.752 141.955H373.727Z" fill="#82E1AF"/>
<path d="M265.629 263.589C264.215 257.123 260.73 249.546 255.931 241.692C251.132 249.521 247.647 257.123 246.207 263.589C243.707 274.979 245.121 298.998 247.672 310.388C249.718 319.48 251.612 327.764 255.931 338.801C260.25 327.764 262.144 319.48 264.19 310.388C266.74 299.023 268.13 274.979 265.629 263.589Z" fill="white"/>
</svg>
