<svg width="512" height="512" viewBox="0 0 512 512" fill="none" xmlns="http://www.w3.org/2000/svg">
<rect width="512" height="512" fill="black"/>
<path d="M275.263 209.378C291.135 191.742 311.728 173.807 332.376 158.803C348.656 146.973 364.338 135.795 382.462 127.899C382.083 125.837 381.513 124.02 380.672 122.636C377.172 116.829 369.9 116.911 365.342 117.86C341.574 122.88 325.105 139.973 307.604 158.803C293.658 173.807 279.712 191.742 268.968 209.378C264.003 217.518 259.472 226.417 255.89 235.018C261.154 226.39 267.91 217.518 275.208 209.378H275.263Z" fill="#E795CA"/>
<path d="M271.518 370.876C264.192 357.445 259.39 347.135 255.971 338.453C258.277 347.162 261.533 357.445 266.471 370.876C271.165 383.574 278.518 396.353 290.836 395.458C293.115 395.295 295.394 394.969 297.646 394.481C285.22 391.306 277.08 381.05 271.518 370.849V370.876Z" fill="#E795CA"/>
<path d="M214.251 394.482C216.503 394.943 218.755 395.296 221.034 395.459C233.352 396.327 240.705 383.575 245.399 370.877C250.337 357.446 253.593 347.163 255.899 338.481C252.48 347.163 247.705 357.446 240.379 370.877C234.817 381.079 226.678 391.335 214.251 394.509V394.482Z" fill="#E795CA"/>
<path d="M161.671 308.988C163.408 281.503 173.013 265.875 185.005 262.836L183.567 262.917C166.175 263.677 160.369 259.227 155.295 244.087C146.043 216.467 147.807 198.044 142.896 183.094C140.807 176.745 133.372 162.962 130.144 147.903C129.058 142.857 128.244 133.686 129.493 127.011C118.802 122.345 107.244 118.817 94.2205 116.972C87.4917 115.996 76.7201 115.941 71.565 121.748C66.3556 127.608 67.8207 141.31 69.9099 147.93C74.6852 162.989 85.6738 176.772 88.7669 183.121C96.0383 198.071 93.4065 216.494 107.081 244.114C114.57 259.254 123.144 263.677 148.865 262.944L150.981 262.863C133.264 265.902 119.047 281.53 116.469 309.015C111.911 357.799 155.512 393.125 204.459 395.486C208.041 395.648 211.324 395.296 214.362 394.509C184.137 388.16 158.795 354.407 161.671 309.015V308.988Z" fill="#FA9660"/>
<path d="M440.398 121.747C435.243 115.941 424.471 116.022 417.743 116.972C404.719 118.844 393.161 122.371 382.47 127.011C383.719 133.685 382.877 142.856 381.819 147.903C378.591 162.961 371.156 176.744 369.067 183.093C364.156 198.043 365.92 216.466 356.668 244.087C351.594 259.227 345.788 263.649 328.396 262.917L326.958 262.835C338.95 265.874 348.555 281.502 350.292 308.987C353.168 354.38 327.799 388.132 297.601 394.481C300.639 395.268 303.922 395.621 307.504 395.458C356.423 393.098 400.052 357.771 395.494 308.987C392.916 281.502 378.699 265.874 360.982 262.835L363.098 262.917C388.819 263.676 397.393 259.227 404.882 244.087C418.556 216.466 415.925 198.043 423.196 183.093C426.289 176.744 437.278 162.961 442.053 147.903C444.142 141.31 445.607 127.581 440.398 121.72V121.747Z" fill="#FA9660"/>
<path d="M236.582 208.49C243.908 216.629 250.637 225.502 255.9 234.13C252.346 225.502 247.788 216.629 242.823 208.49C232.105 190.854 218.159 172.919 204.186 157.915C186.686 139.085 170.217 121.992 146.449 116.972C141.89 115.996 134.619 115.941 131.119 121.748C130.278 123.131 129.708 124.949 129.328 127.011C147.453 134.907 163.135 146.058 179.414 157.915C200.062 172.919 220.656 190.854 236.528 208.49H236.582Z" fill="#E795CA"/>
<path d="M382.474 127.037C364.35 134.932 348.667 146.084 332.388 157.94C311.74 172.945 291.147 190.879 275.274 208.515C267.949 216.655 261.22 225.554 255.956 234.155C250.692 225.527 243.964 216.655 236.638 208.515C220.765 190.879 200.172 172.945 179.524 157.94C163.245 146.111 147.562 134.932 129.438 127.037C128.19 133.711 129.031 142.882 130.089 147.929C133.318 162.987 140.752 176.77 142.841 183.119C147.752 198.069 145.989 216.492 155.241 244.113C160.315 259.253 166.121 263.675 183.513 262.943L184.951 262.861C172.958 265.9 163.353 281.528 161.617 309.013C158.741 354.406 184.11 388.158 214.308 394.507C226.735 391.333 234.874 381.077 240.436 370.875C247.762 357.445 252.565 347.161 255.956 338.479C259.375 347.134 264.177 357.445 271.503 370.875C277.065 381.077 285.205 391.306 297.631 394.507C327.83 388.158 353.198 354.406 350.322 309.013C348.586 281.528 338.981 265.9 326.989 262.861L328.427 262.943C345.818 263.702 351.598 259.253 356.698 244.113C365.951 216.492 364.16 198.069 369.098 183.119C371.187 176.77 378.621 162.987 381.85 147.929C382.935 142.882 383.749 133.711 382.501 127.037H382.474Z" fill="#82E1AF"/>
<path d="M266.346 257.707C264.827 250.761 261.082 242.621 255.927 234.183C250.772 242.594 247.028 250.761 245.481 257.707C242.795 269.943 244.315 295.746 247.055 307.983C249.253 317.751 251.288 326.65 255.927 338.507C260.567 326.65 262.602 317.751 264.8 307.983C267.54 295.773 269.032 269.943 266.346 257.707Z" fill="white"/>
</svg>
