<svg width="2838" height="817" viewBox="0 0 2838 817" fill="none" xmlns="http://www.w3.org/2000/svg">
<path d="M1297.55 302.686H1339.68V532.789H1297.55V302.686Z" fill="black"/>
<path d="M1781.68 302.686H1823.81V532.789H1781.68V302.686Z" fill="black"/>
<path d="M2131.29 499.979C2126.08 505.28 2120.3 510.247 2113.85 514.88C2107.41 519.512 2100.48 523.524 2093.03 526.915C2085.58 530.306 2077.7 532.933 2069.34 534.843C2060.98 536.753 2052.24 537.708 2043.12 537.708C2031.61 537.708 2020.58 536.276 2009.93 533.506C1999.33 530.688 1989.44 526.628 1980.22 521.375C1971.01 516.121 1962.65 509.865 1955.01 502.605C1947.37 495.346 1940.87 487.227 1935.52 478.344C1930.17 469.413 1925.97 459.861 1923.01 449.593C1920 439.325 1918.52 428.627 1918.52 417.451C1918.52 406.275 1920 395.577 1923.01 385.309C1925.97 375.041 1930.17 365.441 1935.52 356.558C1940.87 347.627 1947.37 339.556 1955.01 332.296C1962.6 325.037 1971.01 318.781 1980.22 313.623C1989.39 308.417 1999.33 304.453 2009.93 301.587C2020.53 298.722 2031.61 297.337 2043.12 297.337C2052.15 297.337 2060.79 298.244 2069.01 300.059C2077.22 301.874 2085.05 304.453 2092.46 307.748C2099.81 311.091 2106.79 315.055 2113.28 319.688C2119.78 324.321 2125.79 329.431 2131.29 335.114L2105.4 362.337C2097.85 353.311 2088.64 346.29 2077.8 341.275C2066.95 336.261 2055.4 333.729 2043.12 333.729C2031.71 333.729 2021.06 335.878 2011.08 340.177C2001.09 344.475 1992.35 350.349 1984.9 357.848C1977.45 365.346 1971.58 374.229 1967.23 384.497C1962.89 394.765 1960.74 405.798 1960.74 417.69C1960.74 429.582 1962.89 440.566 1967.23 450.787C1971.58 460.96 1977.45 469.843 1984.9 477.341C1992.35 484.839 2001.05 490.713 2011.08 495.012C2021.06 499.31 2031.76 501.459 2043.12 501.459C2055.3 501.459 2066.81 498.928 2077.7 493.865C2088.59 488.803 2097.85 481.783 2105.54 472.899L2131.24 500.17L2131.29 499.979Z" fill="black"/>
<path d="M2705.59 302.685L2614.89 445.151V532.789H2572.77V445.294L2482.08 302.638H2531.31L2593.59 406.705H2594.12L2656.2 302.638H2705.64L2705.59 302.685Z" fill="black"/>
<path d="M2367.64 447.014C2374.62 444.292 2380.97 440.757 2386.7 436.364C2392.38 431.97 2397.25 426.86 2401.22 420.985C2405.23 415.111 2408.29 408.568 2410.44 401.261C2412.59 394.001 2413.64 386.169 2413.64 377.811C2413.64 366.635 2411.68 356.415 2407.71 347.197C2403.75 337.932 2398.26 330.052 2391.14 323.413C2384.03 316.822 2375.62 311.712 2365.88 308.083C2356.13 304.501 2345.44 302.686 2333.83 302.686H2234.49V532.789H2276.61V339.031H2332.11C2337.65 339.031 2342.81 339.986 2347.68 341.896C2352.55 343.806 2356.71 346.481 2360.19 349.92C2363.68 353.358 2366.45 357.466 2368.5 362.194C2370.56 366.922 2371.56 372.175 2371.56 377.954C2371.56 383.733 2370.56 388.939 2368.5 393.667C2366.45 398.395 2363.73 402.455 2360.19 405.75C2356.71 409.093 2352.6 411.672 2347.82 413.535C2343.1 415.397 2337.99 416.305 2332.45 416.305H2325.33V452.697L2370.51 532.741H2418.89L2367.6 446.966L2367.64 447.014Z" fill="black"/>
<path d="M2313.91 432.447L2325.38 452.745L2354.18 416.353H2304.84L2313.91 432.447Z" fill="black"/>
<path d="M1076.38 429.009L959.801 292.465V532.789H1001.92V398.968L1076.38 485.937L1150.84 398.968V532.789H1192.96V292.465L1076.38 429.009Z" fill="black"/>
<path d="M1560.75 429.009L1444.17 292.465V532.789H1486.35V398.968L1560.75 485.937L1635.21 398.968V532.789H1677.33V292.465L1560.75 429.009Z" fill="black"/>
<path d="M517.275 332.385C545.019 301.558 581.014 270.211 617.104 243.985C645.559 223.308 672.971 203.769 704.65 189.968C703.987 186.364 702.991 183.186 701.52 180.768C695.403 170.619 682.693 170.761 674.725 172.421C633.181 181.194 604.395 211.072 573.806 243.985C549.429 270.211 525.053 301.558 506.273 332.385C497.594 346.612 489.674 362.167 483.414 377.201C492.614 362.12 504.423 346.612 517.181 332.385H517.275Z" fill="#E795CA"/>
<path d="M510.73 614.667C497.925 591.192 489.531 573.171 483.555 557.995C487.586 573.218 493.277 591.192 501.909 614.667C510.113 636.862 522.965 659.199 544.496 657.634C548.48 657.35 552.463 656.781 556.4 655.927C534.679 650.378 520.452 632.452 510.73 614.62V614.667Z" fill="#E795CA"/>
<path d="M410.632 655.929C414.569 656.735 418.505 657.352 422.489 657.636C444.019 659.154 456.871 636.864 465.076 614.67C473.707 591.194 479.398 573.22 483.429 558.045C477.454 573.22 469.107 591.194 456.302 614.67C446.58 632.501 432.353 650.428 410.632 655.977V655.929Z" fill="#E795CA"/>
<path d="M318.729 506.493C321.764 458.452 338.552 431.135 359.514 425.824L357.001 425.966C326.601 427.294 316.452 419.516 307.584 393.053C291.412 344.775 294.495 312.573 285.911 286.442C282.259 275.345 269.265 251.253 263.621 224.933C261.724 216.112 260.302 200.082 262.483 188.416C243.798 180.259 223.595 174.093 200.831 170.868C189.07 169.161 170.242 169.066 161.231 179.215C152.126 189.459 154.687 213.408 158.338 224.98C166.685 251.301 185.892 275.393 191.298 286.49C204.008 312.621 199.408 344.822 223.31 393.101C236.399 419.564 251.386 427.294 296.344 426.014L300.043 425.871C269.075 431.183 244.225 458.499 239.719 506.541C231.752 591.81 307.963 653.557 393.518 657.683C399.778 657.968 405.516 657.351 410.828 655.976C357.996 644.879 313.702 585.882 318.729 506.541V506.493Z" fill="#FA9660"/>
<path d="M805.916 179.214C796.905 169.065 778.077 169.208 766.316 170.867C743.552 174.14 723.349 180.305 704.664 188.415C706.845 200.081 705.375 216.111 703.526 224.932C697.882 251.252 684.888 275.344 681.236 286.441C672.652 312.573 675.735 344.774 659.563 393.052C650.695 419.515 640.546 427.246 610.146 425.965L607.633 425.823C628.595 431.134 645.383 458.451 648.418 506.492C653.445 585.834 609.103 644.83 556.319 655.928C561.631 657.303 567.369 657.919 573.629 657.635C659.136 653.509 735.395 591.762 727.428 506.492C722.922 458.451 698.072 431.134 667.104 425.823L670.803 425.965C715.761 427.293 730.747 419.515 743.837 393.052C767.739 344.774 763.139 312.573 775.848 286.441C781.255 275.344 800.462 251.252 808.809 224.932C812.46 213.407 815.021 189.41 805.916 179.167V179.214Z" fill="#FA9660"/>
<path d="M449.666 330.832C462.47 345.059 474.232 360.567 483.432 375.648C477.22 360.567 469.252 345.059 460.573 330.832C441.841 300.006 417.464 268.658 393.041 242.432C362.452 209.52 333.665 179.642 292.121 170.868C284.153 169.161 271.444 169.066 265.326 179.215C263.856 181.634 262.86 184.811 262.196 188.416C293.876 202.216 321.287 221.708 349.742 242.432C385.832 268.658 421.827 300.006 449.571 330.832H449.666Z" fill="#E795CA"/>
<path d="M704.671 188.46C672.991 202.261 645.58 221.752 617.125 242.477C581.035 268.703 545.039 300.051 517.296 330.877C504.491 345.104 492.73 360.659 483.529 375.693C474.329 360.612 462.568 345.104 449.763 330.877C422.02 300.051 386.024 268.703 349.934 242.477C321.479 221.8 294.068 202.261 262.388 188.46C260.206 200.127 261.677 216.156 263.526 224.977C269.17 251.298 282.164 275.39 285.816 286.487C294.4 312.618 291.317 344.82 307.489 393.098C316.357 419.561 326.506 427.291 356.905 426.011L359.419 425.868C338.457 431.18 321.669 458.497 318.634 506.538C313.607 585.879 357.949 644.876 410.733 655.973C432.453 650.425 446.68 632.498 456.403 614.666C469.207 591.191 477.601 573.217 483.529 558.041C489.505 573.17 497.899 591.191 510.704 614.666C520.426 632.498 534.653 650.377 556.374 655.973C609.158 644.876 653.5 585.879 648.473 506.538C645.438 458.497 628.649 431.18 607.687 425.868L610.201 426.011C640.6 427.339 650.702 419.561 659.617 393.098C675.789 344.82 672.659 312.618 681.291 286.487C684.942 275.39 697.937 251.298 703.58 224.977C705.477 216.156 706.9 200.127 704.718 188.46H704.671Z" fill="#82E1AF"/>
<path d="M501.69 416.859C499.034 404.718 492.489 390.491 483.479 375.742C474.468 390.443 467.923 404.718 465.22 416.859C460.525 438.247 463.181 483.348 467.971 504.737C471.812 521.81 475.369 537.365 483.479 558.09C491.588 537.365 495.145 521.81 498.987 504.737C503.776 483.396 506.385 438.247 501.69 416.859V416.859Z" fill="white"/>
</svg>
