<svg width="2838" height="817" viewBox="0 0 2838 817" fill="none" xmlns="http://www.w3.org/2000/svg">
<path d="M1297.55 302.686H1339.68V532.789H1297.55V302.686Z" fill="black"/>
<path d="M1781.68 302.686H1823.81V532.789H1781.68V302.686Z" fill="black"/>
<path d="M2131.29 499.979C2126.08 505.28 2120.3 510.247 2113.85 514.88C2107.41 519.512 2100.48 523.524 2093.03 526.915C2085.58 530.306 2077.7 532.933 2069.34 534.843C2060.98 536.753 2052.24 537.709 2043.12 537.709C2031.61 537.709 2020.58 536.276 2009.93 533.506C1999.33 530.688 1989.44 526.628 1980.22 521.375C1971.01 516.121 1962.65 509.865 1955.01 502.606C1947.37 495.346 1940.87 487.227 1935.52 478.344C1930.17 469.413 1925.97 459.861 1923.01 449.593C1920 439.325 1918.52 428.627 1918.52 417.451C1918.52 406.275 1920 395.577 1923.01 385.309C1925.97 375.041 1930.17 365.441 1935.52 356.558C1940.87 347.627 1947.37 339.556 1955.01 332.297C1962.6 325.037 1971.01 318.781 1980.22 313.623C1989.39 308.417 1999.33 304.453 2009.93 301.587C2020.53 298.722 2031.61 297.337 2043.12 297.337C2052.15 297.337 2060.79 298.244 2069.01 300.059C2077.22 301.874 2085.05 304.453 2092.46 307.748C2099.81 311.091 2106.79 315.055 2113.28 319.688C2119.78 324.321 2125.79 329.431 2131.29 335.114L2105.4 362.337C2097.85 353.311 2088.64 346.29 2077.8 341.275C2066.95 336.261 2055.4 333.729 2043.12 333.729C2031.71 333.729 2021.06 335.878 2011.08 340.177C2001.09 344.475 1992.35 350.35 1984.9 357.848C1977.45 365.346 1971.58 374.229 1967.23 384.497C1962.89 394.765 1960.74 405.798 1960.74 417.69C1960.74 429.582 1962.89 440.566 1967.23 450.787C1971.58 460.96 1977.45 469.843 1984.9 477.341C1992.35 484.839 2001.05 490.714 2011.08 495.012C2021.06 499.31 2031.76 501.459 2043.12 501.459C2055.3 501.459 2066.81 498.928 2077.7 493.866C2088.59 488.803 2097.85 481.783 2105.54 472.899L2131.24 500.17L2131.29 499.979Z" fill="black"/>
<path d="M2705.59 302.686L2614.89 445.151V532.789H2572.77V445.294L2482.08 302.638H2531.31L2593.59 406.705H2594.12L2656.2 302.638H2705.64L2705.59 302.686Z" fill="black"/>
<path d="M2367.64 447.014C2374.62 444.292 2380.97 440.757 2386.7 436.364C2392.38 431.97 2397.25 426.86 2401.22 420.985C2405.23 415.111 2408.29 408.568 2410.44 401.261C2412.59 394.001 2413.64 386.169 2413.64 377.811C2413.64 366.635 2411.68 356.415 2407.71 347.197C2403.75 337.932 2398.26 330.052 2391.14 323.413C2384.03 316.822 2375.62 311.712 2365.88 308.083C2356.13 304.501 2345.44 302.686 2333.83 302.686H2234.49V532.789H2276.61V339.031H2332.11C2337.65 339.031 2342.81 339.986 2347.68 341.896C2352.55 343.806 2356.71 346.481 2360.19 349.92C2363.68 353.358 2366.45 357.466 2368.5 362.194C2370.56 366.922 2371.56 372.175 2371.56 377.954C2371.56 383.733 2370.56 388.939 2368.5 393.667C2366.45 398.395 2363.73 402.455 2360.19 405.75C2356.71 409.093 2352.6 411.672 2347.82 413.535C2343.1 415.397 2337.99 416.305 2332.45 416.305H2325.33V452.697L2370.51 532.741H2418.89L2367.6 446.966L2367.64 447.014Z" fill="black"/>
<path d="M2313.91 432.447L2325.38 452.745L2354.18 416.353H2304.84L2313.91 432.447Z" fill="black"/>
<path d="M1076.38 429.009L959.801 292.465V532.789H1001.92V398.968L1076.38 485.937L1150.84 398.968V532.789H1192.96V292.465L1076.38 429.009Z" fill="black"/>
<path d="M1560.75 429.009L1444.17 292.465V532.789H1486.35V398.968L1560.75 485.937L1635.21 398.968V532.789H1677.33V292.465L1560.75 429.009Z" fill="black"/>
<path d="M483.548 377.337L483.497 377.286L483.548 377.337Z" fill="#FF5C9F"/>
<path d="M317.391 509.053C320.448 460.673 337.355 433.164 358.464 427.815L355.933 427.958C325.319 429.295 315.099 421.463 306.168 394.813C289.882 346.194 292.987 313.766 284.342 287.451C280.665 276.275 267.579 252.013 261.895 225.507C259.985 216.624 258.552 200.481 260.749 188.733C241.932 180.518 221.587 174.309 198.662 171.062C186.818 169.39 167.858 169.247 158.783 179.467C149.614 189.783 152.193 213.902 155.87 225.555C164.276 252.061 183.618 276.323 189.063 287.499C201.862 313.814 197.23 346.242 221.3 394.861C234.482 421.511 249.574 429.295 294.849 428.006L298.574 427.863C267.388 433.212 242.362 460.721 237.825 509.101C229.801 594.972 306.55 657.154 392.708 661.309C399.012 661.596 404.791 660.975 410.14 659.59C356.936 648.414 312.329 589.002 317.391 509.101V509.053Z" fill="#A4A4A4"/>
<path d="M808.213 179.467C799.138 169.247 780.178 169.39 768.334 171.062C745.409 174.357 725.064 180.566 706.247 188.733C708.444 200.481 706.963 216.624 705.101 225.507C699.417 252.013 686.331 276.275 682.654 287.451C674.01 313.766 677.114 346.194 660.828 394.813C651.897 421.463 641.677 429.248 611.063 427.958L608.532 427.815C629.641 433.164 646.548 460.673 649.605 509.053C654.667 588.954 610.012 648.366 556.856 659.542C562.205 660.927 567.984 661.548 574.288 661.261C660.398 657.106 737.195 594.924 729.171 509.053C724.634 460.673 699.608 433.164 668.422 427.815L672.147 427.958C717.422 429.295 732.514 421.463 745.696 394.813C769.766 346.194 765.134 313.766 777.933 287.451C783.378 276.275 802.72 252.013 811.126 225.507C814.803 213.902 817.382 189.736 808.213 179.42V179.467Z" fill="#A4A4A4"/>
<path opacity="0.6" d="M467.928 507.191C471.797 524.384 475.379 540.049 483.546 560.92C491.712 540.049 495.294 524.384 499.163 507.191C503.986 485.699 506.613 440.232 501.885 418.693C499.211 406.467 492.62 392.139 483.546 377.286C474.471 392.091 467.881 406.467 465.206 418.693C460.478 440.232 463.152 485.651 467.928 507.191Z" fill="url(#paint0_linear_3752_1147)"/>
<path d="M517.551 332.153C545.49 301.11 581.739 269.541 618.084 243.13C646.739 222.307 674.344 202.631 706.247 188.733C705.578 185.103 704.575 181.903 703.095 179.467C696.934 169.247 684.135 169.39 676.111 171.062C634.274 179.897 605.284 209.985 574.48 243.13C549.931 269.541 525.383 301.158 506.471 332.153C497.731 346.481 489.755 362.146 483.451 377.286C492.716 362.098 504.608 346.481 517.503 332.153H517.551Z" fill="#A4A4A4"/>
<path d="M449.494 332.153C462.389 346.481 474.234 362.098 483.499 377.286C477.243 362.098 469.219 346.481 460.479 332.153C441.614 301.11 417.066 269.541 392.47 243.13C361.665 209.985 332.676 179.897 290.839 171.062C282.815 169.39 270.016 169.247 263.903 179.467C262.422 181.903 261.419 185.151 260.75 188.733C292.654 202.631 320.258 222.26 348.914 243.13C385.258 269.541 421.508 301.158 449.447 332.153H449.494Z" fill="#A4A4A4"/>
<path d="M510.863 617.992C497.968 594.351 489.515 576.202 483.497 560.92C487.557 576.25 493.288 594.351 501.98 617.992C510.242 640.343 523.185 662.838 544.867 661.261C548.879 660.975 552.891 660.402 556.855 659.542C534.981 653.954 520.654 635.901 510.863 617.944V617.992Z" fill="#A4A4A4"/>
<path d="M410.138 659.542C414.102 660.354 418.066 660.975 422.126 661.262C443.808 662.838 456.751 640.343 465.013 617.992C473.706 594.351 479.437 576.298 483.496 560.967C477.526 576.25 469.073 594.351 456.178 617.992C446.387 635.949 432.06 654.002 410.186 659.59L410.138 659.542Z" fill="#A4A4A4"/>
<path d="M467.926 507.19C463.103 485.699 460.476 440.232 465.204 418.693C467.879 406.466 474.517 392.139 483.544 377.285C474.278 362.098 462.434 346.481 449.539 332.153C421.6 301.11 385.351 269.541 349.006 243.13C320.351 222.307 292.746 202.631 260.843 188.733C258.646 200.481 260.127 216.624 261.989 225.507C267.672 252.013 280.758 276.275 284.436 287.451C293.08 313.766 289.976 346.194 306.262 394.813C315.193 421.463 325.413 429.247 356.027 427.958L358.558 427.815C337.449 433.164 320.542 460.673 317.485 509.053C312.423 588.954 357.077 648.366 410.233 659.542C432.107 653.954 446.435 635.901 456.225 617.944C469.12 594.303 477.574 576.25 483.544 560.919C475.377 540.001 471.795 524.336 467.926 507.142V507.19Z" fill="#FF5C9F"/>
<path d="M649.653 509.053C646.596 460.673 629.69 433.164 608.58 427.815L611.111 427.958C641.725 429.295 651.945 421.463 660.876 394.813C677.162 346.194 674.01 313.766 682.702 287.451C686.38 276.275 699.466 252.013 705.149 225.507C707.059 216.624 708.492 200.481 706.295 188.733C674.392 202.631 646.787 222.259 618.132 243.13C581.787 269.541 545.538 301.158 517.599 332.153C504.704 346.481 492.86 362.146 483.547 377.285C492.621 392.091 499.212 406.466 501.886 418.693C506.615 440.232 503.94 485.651 499.164 507.19C495.296 524.384 491.714 540.049 483.547 560.919C489.565 576.25 498.018 594.351 510.913 617.991C520.703 635.949 535.031 654.002 556.905 659.59C610.061 648.414 654.715 589.002 649.653 509.101V509.053Z" fill="#FF5C9F"/>
<path d="M706.292 188.78C674.389 202.678 646.784 222.307 618.129 243.178C581.784 269.589 545.535 301.205 517.596 332.201C504.701 346.529 492.857 362.194 483.544 377.333C474.278 362.146 462.434 346.529 449.539 332.201C421.6 301.158 385.351 269.589 349.006 243.178C320.351 222.355 292.746 202.678 260.843 188.78C258.646 200.529 260.127 216.672 261.989 225.555C267.672 252.061 280.758 276.323 284.436 287.498C293.08 313.814 289.976 346.242 306.262 394.861C315.193 421.511 325.413 429.295 356.027 428.006L358.558 427.863C337.449 433.212 320.542 460.721 317.485 509.101C312.423 589.002 357.077 648.414 410.233 659.59C432.107 654.002 446.435 635.949 456.225 617.992C469.12 594.351 477.574 576.298 483.544 560.967C489.561 576.202 498.015 594.351 510.91 617.992C520.7 635.949 535.028 654.002 556.902 659.59C610.058 648.414 654.712 589.002 649.65 509.101C646.593 460.721 629.686 433.212 608.577 427.863L611.108 428.006C641.722 429.343 651.942 421.511 660.873 394.861C677.159 346.242 674.007 313.814 682.699 287.498C686.377 276.323 699.463 252.061 705.146 225.555C707.056 216.672 708.489 200.529 706.292 188.78V188.78Z" fill="#666666"/>
<path d="M501.886 418.788C499.212 406.562 492.621 392.234 483.547 377.381C474.472 392.187 467.882 406.562 465.207 418.788C460.479 440.328 463.153 485.747 467.977 507.286C471.846 524.479 475.428 540.144 483.594 561.015C491.761 540.144 495.343 524.479 499.212 507.286C504.035 485.794 506.662 440.328 501.934 418.788H501.886Z" fill="#424242"/>
<defs>
<linearGradient id="paint0_linear_3752_1147" x1="483.546" y1="323.27" x2="483.546" y2="538.95" gradientUnits="userSpaceOnUse">
<stop stop-color="#FF5C9F"/>
<stop offset="1" stop-color="#FC3891"/>
</linearGradient>
</defs>
</svg>
