<svg width="2838" height="817" viewBox="0 0 2838 817" fill="none" xmlns="http://www.w3.org/2000/svg">
<path d="M1298.11 302.235H1340.2V532.151H1298.11V302.235Z" fill="white"/>
<path d="M1781.85 302.235H1823.94V532.151H1781.85V302.235Z" fill="white"/>
<path d="M2131.16 499.32C2125.96 504.617 2120.19 509.58 2113.75 514.209C2107.3 518.838 2100.38 522.847 2092.94 526.187C2085.49 529.575 2077.62 532.2 2069.27 534.156C2060.92 536.065 2052.19 537.019 2043.07 537.019C2031.57 537.019 2020.55 535.588 2009.95 532.82C1999.36 530.004 1989.48 525.996 1980.27 520.747C1971.11 515.498 1962.71 509.246 1955.08 501.993C1947.44 494.739 1941 486.627 1935.61 477.751C1930.26 468.827 1926.06 459.283 1923.1 449.023C1920.1 438.763 1918.62 428.074 1918.62 416.908C1918.62 405.741 1920.1 395.052 1923.1 384.792C1926.06 374.532 1930.26 364.94 1935.61 356.064C1940.95 347.141 1947.44 339.076 1955.08 331.775C1962.66 324.521 1971.06 318.27 1980.27 313.116C1989.48 307.915 1999.36 303.954 2009.95 301.091C2020.55 298.275 2031.62 296.844 2043.07 296.844C2052.09 296.844 2060.73 297.75 2068.94 299.564C2077.14 301.377 2084.97 303.954 2092.37 307.247C2099.76 310.587 2106.68 314.548 2113.17 319.177C2119.66 323.806 2125.63 328.911 2131.16 334.59L2105.3 361.791C2097.76 352.772 2088.55 345.757 2077.72 340.746C2066.88 335.736 2055.34 333.206 2043.07 333.206C2031.67 333.206 2021.02 335.354 2011.05 339.649C2001.08 343.943 1992.34 349.813 1984.9 357.305C1977.46 364.797 1971.59 373.673 1967.24 383.933C1962.9 394.193 1960.75 405.216 1960.75 417.051C1960.75 428.885 1962.9 439.909 1967.24 450.121C1971.59 460.333 1977.46 469.161 1984.9 476.653C1992.34 484.145 2001.03 490.015 2011.05 494.31C2021.02 498.605 2031.71 500.752 2043.07 500.752C2055.24 500.752 2066.79 498.223 2077.67 493.164C2088.55 488.106 2097.81 481.091 2105.49 472.215L2131.16 499.416V499.32Z" fill="white"/>
<path d="M2705 302.235L2614.38 444.585V532.151H2572.29V444.728L2481.67 302.188H2530.87L2593.1 406.17H2593.62L2655.66 302.188H2705V302.235Z" fill="white"/>
<path d="M2367.33 446.446C2374.34 443.726 2380.64 440.195 2386.37 435.804C2392.05 431.414 2396.92 426.308 2400.93 420.438C2404.93 414.569 2407.99 408.031 2410.13 400.73C2412.28 393.429 2413.33 385.65 2413.33 377.299C2413.33 366.133 2411.38 355.921 2407.41 346.711C2403.45 337.453 2397.97 329.579 2390.86 322.946C2383.75 316.361 2375.35 311.254 2365.56 307.628C2355.83 304.001 2345.14 302.235 2333.54 302.235H2234.29V532.151H2276.38V338.551H2331.83C2337.36 338.551 2342.52 339.505 2347.38 341.414C2352.25 343.323 2356.4 345.995 2359.89 349.431C2363.37 352.867 2366.14 356.971 2368.19 361.695C2370.24 366.419 2371.24 371.668 2371.24 377.442C2371.24 383.217 2370.24 388.418 2368.19 393.142C2366.14 397.867 2363.42 401.923 2359.89 405.216C2356.4 408.556 2352.3 411.133 2347.53 412.994C2342.8 414.855 2337.65 415.762 2332.16 415.762H2325.05V452.125L2370.19 532.104H2418.53L2367.28 446.398L2367.33 446.446Z" fill="white"/>
<path d="M2313.64 431.891L2325.1 452.173L2353.87 415.81H2304.58L2313.64 431.891Z" fill="white"/>
<path d="M1077.12 428.456L960.635 292.024V532.152H1002.72V398.44L1077.12 485.338L1151.52 398.44V532.152H1193.6V292.024L1077.12 428.456Z" fill="white"/>
<path d="M1561.1 428.456L1444.61 292.024V532.152H1486.75V398.44L1561.1 485.338L1635.49 398.44V532.152H1677.58V292.024L1561.1 428.456Z" fill="white"/>
<path d="M518.745 331.68C546.661 300.661 582.881 269.118 619.196 242.729C647.828 221.923 675.41 202.262 707.287 188.376C706.619 184.749 705.617 181.552 704.138 179.118C697.982 168.906 685.193 169.049 677.176 170.719C635.373 179.548 606.407 209.611 575.627 242.729C551.099 269.118 526.571 300.661 507.674 331.68C498.941 345.996 490.971 361.648 484.672 376.775C493.93 361.6 505.812 345.996 518.649 331.68H518.745Z" fill="#999999"/>
<path d="M512.062 617.285C499.178 593.663 490.731 575.529 484.719 560.259C488.775 575.577 494.501 593.663 503.186 617.285C511.442 639.618 524.374 662.094 546.039 660.519C550.048 660.233 554.056 659.66 558.017 658.801C536.161 653.218 521.845 635.18 512.062 617.237V617.285Z" fill="#999999"/>
<path d="M411.47 658.802C415.431 659.613 419.391 660.234 423.4 660.52C445.065 662.047 457.997 639.619 466.252 617.286C474.938 593.664 480.664 575.578 484.72 560.308C478.708 575.578 470.309 593.664 457.424 617.286C447.642 635.228 433.326 653.267 411.47 658.85V658.802Z" fill="#999999"/>
<path d="M318.749 508.435C321.803 460.095 338.696 432.608 359.788 427.263L357.259 427.407C326.67 428.743 316.458 420.917 307.535 394.289C291.262 345.71 294.364 313.307 285.726 287.014C282.052 275.847 268.977 251.605 263.298 225.121C261.389 216.245 259.958 200.115 262.153 188.376C243.351 180.168 223.022 173.964 200.116 170.72C188.282 169.002 169.337 168.906 160.27 179.118C151.108 189.426 153.685 213.525 157.359 225.168C165.758 251.653 185.085 275.895 190.525 287.061C203.314 313.355 198.685 345.757 222.736 394.336C235.907 420.964 250.986 428.743 296.225 427.454L299.947 427.311C268.786 432.656 243.78 460.143 239.247 508.483C231.23 594.284 307.916 656.416 394.004 660.567C400.303 660.854 406.077 660.233 411.422 658.85C358.261 647.683 313.69 588.319 318.749 508.483V508.435Z" fill="#999999"/>
<path d="M809.216 179.118C800.149 168.906 781.205 169.049 769.37 170.719C746.464 174.012 726.135 180.216 707.334 188.376C709.529 200.115 708.05 216.244 706.188 225.12C700.51 251.605 687.434 275.847 683.76 287.013C675.123 313.307 678.224 345.709 661.952 394.288C653.028 420.916 642.816 428.695 612.227 427.406L609.698 427.263C630.79 432.608 647.683 460.095 650.738 508.435C655.796 588.271 611.178 647.635 558.065 658.802C563.41 660.185 569.184 660.806 575.483 660.52C661.522 656.368 738.256 594.236 730.239 508.435C725.706 460.095 700.701 432.608 669.539 427.263L673.262 427.406C718.5 428.742 733.58 420.916 746.751 394.288C770.802 345.709 766.173 313.307 778.962 287.013C784.402 275.847 803.729 251.605 812.127 225.12C815.802 213.524 818.379 189.378 809.216 179.07V179.118Z" fill="#999999"/>
<path d="M450.742 331.68C463.627 345.996 475.462 361.6 484.719 376.775C478.468 361.6 470.451 345.996 461.718 331.68C442.869 300.662 418.34 269.119 393.765 242.729C362.985 209.611 334.019 179.548 292.216 170.72C284.199 169.002 271.41 168.906 265.254 179.118C263.775 181.552 262.773 184.749 262.104 188.376C293.982 202.263 321.564 221.876 350.196 242.729C386.511 269.119 422.731 300.662 450.647 331.68H450.742Z" fill="#999999"/>
<path d="M707.335 188.424C675.458 202.31 647.875 221.923 619.243 242.777C582.928 269.166 546.709 300.709 518.792 331.727C505.908 346.043 494.073 361.696 484.815 376.823C475.558 361.648 463.723 346.043 450.839 331.727C422.922 300.709 386.703 269.166 350.388 242.777C321.755 221.971 294.173 202.31 262.296 188.424C260.101 200.163 261.58 216.292 263.441 225.168C269.12 251.653 282.195 275.895 285.87 287.061C294.507 313.355 291.405 345.757 307.678 394.336C316.602 420.964 326.814 428.743 357.402 427.454L359.932 427.311C338.839 432.656 321.946 460.142 318.892 508.483C313.834 588.319 358.452 647.683 411.565 658.849C433.421 653.266 447.737 635.228 457.519 617.285C470.404 593.664 478.85 575.578 484.815 560.307C490.828 575.53 499.275 593.664 512.159 617.285C521.942 635.228 536.258 653.218 558.114 658.849C611.226 647.683 655.845 588.319 650.786 508.483C647.732 460.142 630.839 432.656 609.747 427.311L612.276 427.454C642.865 428.79 653.029 420.964 662 394.336C678.273 345.757 675.124 313.355 683.809 287.061C687.483 275.895 700.558 251.653 706.237 225.168C708.146 216.292 709.578 200.163 707.382 188.424H707.335Z" fill="#E5E5E5"/>
<path d="M503.091 418.244C500.419 406.027 493.834 391.711 484.767 376.87C475.7 391.664 469.115 406.027 466.395 418.244C461.67 439.766 464.343 485.147 469.162 506.669C473.028 523.848 476.607 539.501 484.767 560.354C492.927 539.501 496.506 523.848 500.371 506.669C505.191 485.195 507.816 439.766 503.091 418.244V418.244Z" fill="white"/>
</svg>
